<?xml version="1.0" standalone="no"?>
<!DOCTYPE svg PUBLIC "-//W3C//DTD SVG 20010904//EN"
 "http://www.w3.org/TR/2001/REC-SVG-20010904/DTD/svg10.dtd">
<svg version="1.0" xmlns="http://www.w3.org/2000/svg"
 width="1149.000000pt" height="1134.000000pt" viewBox="0 0 1149.000000 1134.000000"
 preserveAspectRatio="xMidYMid meet">

<g transform="translate(0.000000,1134.000000) scale(0.100000,-0.100000)"
fill="#000000" stroke="none">
<path d="M11459 11323 c27 -47 31 -49 31 -15 0 26 -4 32 -20 32 -17 0 -19 -3
-11 -17z"/>
<path d="M5280 10244 c-430 -49 -947 -228 -1315 -454 -62 -37 -323 -227 -385
-278 -262 -218 -549 -569 -728 -889 -147 -263 -234 -472 -315 -758 -37 -130
-37 -137 -5 -146 32 -8 36 -4 69 75 13 33 43 79 65 102 32 32 47 60 64 115 31
104 139 344 215 482 247 444 562 798 963 1084 128 91 227 148 402 231 311 148
588 229 907 267 12 1 32 10 45 19 13 9 38 28 56 41 55 40 140 66 250 78 170
18 314 -5 407 -65 88 -58 117 -68 210 -74 33 -2 71 -6 85 -9 14 -2 72 -14 130
-25 191 -38 591 -183 759 -277 137 -76 251 -149 375 -241 178 -133 187 -141
339 -296 218 -224 409 -489 560 -776 55 -105 173 -370 198 -445 7 -22 32 -61
55 -86 50 -55 66 -85 89 -162 17 -61 39 -74 54 -34 45 122 -199 737 -435 1093
-43 65 -82 124 -87 129 -4 6 -27 37 -51 70 -172 241 -462 520 -736 707 -233
160 -391 239 -725 364 -206 77 -479 134 -789 164 -148 14 -584 10 -726 -6z"/>
<path d="M5570 9986 c-105 -40 -208 -134 -257 -233 -65 -135 -27 -328 91 -448
24 -25 78 -64 120 -85 68 -35 85 -40 145 -40 108 0 237 59 299 138 46 58 89
143 103 206 20 93 -15 242 -77 323 -28 37 -120 103 -180 128 -52 23 -197 29
-244 11z m202 -243 l3 -78 73 3 72 2 0 -84 c0 -53 -4 -87 -11 -92 -7 -4 -40
-7 -75 -6 l-64 0 0 -74 0 -75 -87 3 -88 3 0 75 0 75 -80 3 -81 3 4 32 c2 18
-1 57 -6 86 l-10 53 82 -3 81 -3 -3 64 c-1 36 0 71 3 78 3 8 32 12 94 12 l90
0 3 -77z"/>
<path d="M4957 9773 c-18 -5 -47 -52 -47 -77 0 -19 46 -66 65 -66 7 0 28 12
45 27 28 23 31 31 26 61 -8 50 -37 68 -89 55z"/>
<path d="M6347 9769 c-44 -26 -44 -97 0 -120 33 -18 63 -13 86 13 24 28 21 51
-9 87 -27 32 -47 37 -77 20z"/>
<path d="M4658 9676 c-10 -7 -21 -27 -24 -45 -5 -25 -2 -37 16 -56 30 -32 54
-32 85 0 29 28 32 56 9 90 -18 28 -58 33 -86 11z"/>
<path d="M6630 9671 c-16 -31 -12 -76 9 -95 30 -27 91 -18 110 15 14 25 13 29
-13 63 -22 29 -34 36 -61 36 -24 0 -38 -6 -45 -19z"/>
<path d="M4368 9573 c-31 -34 -32 -69 -4 -97 33 -34 56 -33 91 4 l30 31 -20
37 c-24 44 -70 56 -97 25z"/>
<path d="M6920 9568 c-36 -39 -21 -92 33 -111 27 -10 66 10 73 37 18 74 -57
126 -106 74z"/>
<path d="M4119 9420 c-9 -5 -22 -23 -29 -40 -26 -62 47 -115 96 -69 29 28 31
58 3 93 -21 27 -43 32 -70 16z"/>
<path d="M7175 9405 c-46 -45 -25 -115 34 -115 33 0 71 37 71 69 0 25 -42 71
-65 71 -9 0 -27 -11 -40 -25z"/>
<path d="M8450 9390 c-38 -38 -20 -110 29 -110 36 0 61 28 61 68 0 57 -51 81
-90 42z"/>
<path d="M2822 9384 c-41 -29 -22 -91 33 -107 25 -8 65 24 65 51 0 26 -37 72
-59 72 -9 0 -27 -7 -39 -16z"/>
<path d="M6250 9291 c-25 -4 -55 -13 -67 -21 -21 -13 -40 -57 -29 -67 7 -7
157 -6 164 1 3 3 -13 6 -35 6 -24 0 -43 5 -46 13 -4 10 -6 10 -6 0 -1 -7 -10
-13 -21 -13 -14 0 -20 7 -20 24 0 34 17 40 155 55 l80 8 -65 0 c-36 0 -85 -3
-110 -6z"/>
<path d="M4850 9280 c-88 -12 -177 -38 -280 -82 -52 -23 -99 -45 -104 -49 -16
-14 57 9 112 36 97 47 205 80 223 70 5 -4 24 -1 42 6 26 9 39 8 71 -5 22 -9
42 -13 45 -9 3 5 41 8 83 8 61 0 78 3 82 15 2 8 4 2 5 -14 1 -27 0 -28 -36
-21 -21 3 -49 9 -62 12 -17 4 -22 2 -17 -6 5 -7 -4 -11 -26 -12 l-33 -1 30 -7
c23 -6 13 -8 -43 -12 -40 -3 -76 -9 -80 -14 -11 -15 -50 -35 -69 -36 -18 0
-104 -37 -91 -38 4 -1 27 5 50 13 115 37 292 68 374 64 46 -1 84 -1 84 1 0 12
-45 73 -60 81 -21 11 -216 11 -300 0z m320 -62 c0 -5 -8 -8 -19 -8 -14 0 -17
6 -13 25 4 24 5 24 18 8 7 -10 14 -21 14 -25z"/>
<path d="M3891 9233 c-14 -17 -19 -33 -15 -47 9 -30 44 -66 65 -66 22 0 59 46
59 74 0 63 -71 89 -109 39z"/>
<path d="M7386 9231 c-25 -28 -32 -84 -11 -101 45 -37 114 1 115 64 0 51 -69
76 -104 37z"/>
<path d="M6734 9215 c11 -8 24 -15 30 -15 5 0 1 7 -10 15 -10 8 -23 14 -29 14
-5 0 -1 -6 9 -14z"/>
<path d="M4438 9123 c7 -3 16 -2 19 1 4 3 -2 6 -13 5 -11 0 -14 -3 -6 -6z"/>
<path d="M4395 9110 c-3 -6 1 -7 9 -4 18 7 21 14 7 14 -6 0 -13 -4 -16 -10z"/>
<path d="M6644 9106 c11 -9 27 -16 35 -15 14 0 14 1 1 6 -8 3 -24 10 -35 15
-20 9 -20 9 -1 -6z"/>
<path d="M2640 9080 c-41 -41 -12 -120 44 -120 36 0 79 48 71 79 -15 60 -75
81 -115 41z"/>
<path d="M4623 9086 c-13 -6 -23 -14 -23 -19 0 -7 17 0 50 23 20 13 1 11 -27
-4z"/>
<path d="M8621 9074 c-27 -35 -27 -65 2 -91 38 -35 63 -37 92 -9 31 31 34 85
7 109 -29 26 -77 22 -101 -9z"/>
<path d="M3701 9053 c-22 -27 -21 -49 4 -89 21 -34 51 -36 86 -6 26 21 30 30
25 56 -14 67 -77 89 -115 39z"/>
<path d="M4340 9070 c0 -5 5 -10 10 -10 6 0 10 5 10 10 0 6 -4 10 -10 10 -5 0
-10 -4 -10 -10z"/>
<path d="M6705 9070 c3 -5 11 -10 16 -10 6 0 7 5 4 10 -3 6 -11 10 -16 10 -6
0 -7 -4 -4 -10z"/>
<path d="M7577 9052 c-58 -64 -27 -135 52 -117 50 11 69 91 29 119 -29 21 -61
20 -81 -2z"/>
<path d="M6740 9050 c0 -5 5 -10 10 -10 6 0 10 5 10 10 0 6 -4 10 -10 10 -5 0
-10 -4 -10 -10z"/>
<path d="M4291 9029 c-13 -11 -22 -22 -19 -24 2 -3 15 6 28 20 28 30 24 32 -9
4z"/>
<path d="M4565 9040 c-3 -6 1 -7 9 -4 18 7 21 14 7 14 -6 0 -13 -4 -16 -10z"/>
<path d="M6780 9020 c8 -5 20 -10 25 -10 6 0 3 5 -5 10 -8 5 -19 10 -25 10 -5
0 -3 -5 5 -10z"/>
<path d="M4500 8990 c-30 -26 -22 -34 10 -10 14 10 22 21 19 24 -3 4 -16 -3
-29 -14z"/>
<path d="M6825 8990 c3 -5 8 -10 11 -10 2 0 4 5 4 10 0 6 -5 10 -11 10 -5 0
-7 -4 -4 -10z"/>
<path d="M4217 8965 c-15 -14 -24 -25 -20 -25 11 0 25 12 42 33 19 24 11 21
-22 -8z"/>
<path d="M5025 8976 c-172 -40 -287 -98 -384 -195 -89 -88 -115 -130 -156
-245 -41 -112 -60 -251 -48 -341 l8 -60 70 2 c39 0 127 1 196 2 146 1 135 -7
163 126 10 44 26 109 37 145 10 36 28 107 40 158 22 96 40 122 85 122 41 0 48
-25 55 -179 4 -80 16 -200 27 -266 11 -66 26 -159 32 -207 7 -48 17 -93 22
-100 13 -20 34 14 41 67 8 54 41 124 64 132 9 4 75 1 146 -6 71 -7 131 -10
134 -7 4 3 10 86 15 184 5 97 12 191 16 207 8 28 12 30 76 38 38 5 72 5 76 0
10 -9 30 -257 30 -360 l0 -70 98 -5 c53 -3 105 -2 114 3 22 12 51 111 78 264
12 66 35 164 52 218 32 103 42 113 99 105 18 -2 26 -11 31 -38 30 -153 50
-281 58 -370 11 -124 33 -253 50 -295 11 -28 13 -28 21 -10 4 11 15 46 24 78
12 44 22 60 40 67 14 5 118 7 243 3 l219 -6 6 39 c11 67 7 206 -8 276 -41 195
-193 382 -381 470 -92 43 -155 58 -274 64 -91 5 -121 3 -225 -21 -131 -29
-265 -86 -304 -129 -14 -14 -29 -26 -34 -26 -5 0 -28 16 -51 35 -51 42 -125
77 -237 111 -103 32 -271 41 -364 20z"/>
<path d="M4424 8919 c-10 -12 -37 -35 -58 -52 -34 -27 -41 -29 -49 -16 -28 45
-145 -52 -200 -165 -31 -63 -67 -192 -91 -326 -29 -167 -30 -189 -3 -301 14
-57 28 -127 32 -155 4 -29 15 -61 24 -71 10 -11 24 -36 32 -57 7 -20 21 -45
31 -56 10 -11 18 -26 18 -35 0 -8 10 -19 23 -24 13 -5 29 -16 36 -25 19 -22
48 -20 54 4 3 11 1 22 -4 25 -14 9 1 33 24 39 12 3 28 19 35 36 14 30 39 44
28 15 -3 -8 -1 -15 4 -15 5 0 7 -7 4 -15 -4 -10 0 -15 13 -15 11 0 30 -11 43
-25 13 -14 28 -25 32 -25 5 0 3 6 -4 14 -125 129 -212 311 -237 499 -36 266
12 443 185 680 36 48 61 87 56 87 -5 0 -17 -9 -28 -21z m-157 -1071 c-3 -8 -6
-5 -6 6 -1 11 2 17 5 13 3 -3 4 -12 1 -19z"/>
<path d="M6905 8920 c3 -5 8 -10 11 -10 2 0 4 5 4 10 0 6 -5 10 -11 10 -5 0
-7 -4 -4 -10z"/>
<path d="M4113 8854 c-44 -54 -57 -78 -25 -46 27 27 75 92 71 96 -2 2 -23 -21
-46 -50z"/>
<path d="M6930 8891 c0 -5 7 -12 16 -15 14 -5 15 -4 4 9 -14 17 -20 19 -20 6z"/>
<path d="M3540 8860 c-26 -26 -25 -60 1 -94 25 -31 57 -33 87 -6 26 24 27 41
7 79 -23 45 -62 54 -95 21z"/>
<path d="M7732 8848 c-32 -36 -38 -72 -13 -97 44 -44 121 -9 121 54 0 60 -67
86 -108 43z"/>
<path d="M6996 8803 c96 -150 139 -276 151 -443 7 -93 -11 -265 -37 -355 -19
-66 -75 -195 -90 -205 -16 -12 -120 -140 -113 -140 15 1 81 68 88 89 7 23 21
28 28 9 2 -7 8 -10 12 -6 4 4 2 14 -4 22 -7 8 -8 16 -4 19 18 10 89 -36 79
-51 -7 -11 24 -24 45 -20 17 4 49 37 49 52 0 6 11 24 25 40 14 16 25 37 25 47
0 10 6 24 13 31 7 7 24 49 37 93 22 71 25 97 24 230 l-1 150 -47 124 c-53 137
-92 207 -117 214 -17 5 -49 -24 -49 -45 0 -9 -4 -8 -12 1 -10 11 -10 14 0 18
6 3 12 9 12 15 0 6 -7 8 -15 4 -9 -3 -15 0 -15 9 0 7 -12 27 -27 43 -16 16
-39 47 -53 70 -13 23 -28 42 -32 42 -5 0 8 -26 28 -57z"/>
<path d="M2465 8822 c-56 -11 -72 -71 -30 -116 32 -34 57 -33 94 5 36 36 36
35 12 75 -20 32 -42 43 -76 36z"/>
<path d="M8815 8798 c-23 -18 -26 -26 -22 -56 11 -65 69 -82 111 -31 30 35 28
62 -6 92 -27 23 -49 22 -83 -5z"/>
<path d="M4038 8755 c-20 -26 -22 -35 -10 -35 9 0 35 50 30 55 -2 2 -11 -7
-20 -20z"/>
<path d="M3986 8678 c-9 -17 -16 -34 -16 -37 0 -8 26 32 33 52 10 28 0 19 -17
-15z"/>
<path d="M3387 8632 c-23 -25 -21 -54 4 -86 28 -35 73 -33 102 5 15 21 17 31
8 47 -29 53 -82 69 -114 34z"/>
<path d="M7872 8627 c-41 -43 -19 -117 35 -117 33 0 73 38 73 69 0 65 -65 94
-108 48z"/>
<path d="M3897 8505 c-19 -40 -20 -45 -9 -45 7 0 33 72 28 77 -1 2 -10 -13
-19 -32z"/>
<path d="M2339 8497 c-45 -34 -24 -107 30 -107 15 0 35 8 44 18 47 52 -19 131
-74 89z"/>
<path d="M9474 8485 c-9 -14 -20 -66 -27 -130 -10 -97 -9 -109 8 -141 22 -40
45 -42 84 -6 25 23 26 30 29 138 3 93 1 120 -12 139 -22 33 -60 33 -82 0z"/>
<path d="M1779 8473 c-7 -18 -9 -71 -6 -142 6 -118 17 -151 41 -119 7 10 16
15 19 12 19 -19 20 210 1 259 -10 27 -43 21 -55 -10z"/>
<path d="M8924 8478 c-15 -43 11 -88 51 -88 24 0 65 38 65 62 0 25 -34 48 -73
48 -28 0 -37 -5 -43 -22z"/>
<path d="M3866 8414 c-4 -14 -5 -28 -3 -31 3 -2 8 8 11 23 4 14 5 28 3 31 -3
2 -8 -8 -11 -23z"/>
<path d="M3279 8387 c-23 -18 -40 -53 -33 -72 14 -36 80 -47 107 -17 20 22 22
73 5 90 -15 15 -58 15 -79 -1z"/>
<path d="M8007 8383 c-45 -51 -24 -113 38 -113 39 0 65 26 65 67 0 55 -67 85
-103 46z"/>
<path d="M3832 8275 c0 -16 2 -22 5 -12 2 9 2 23 0 30 -3 6 -5 -1 -5 -18z"/>
<path d="M6171 8280 c-6 -14 -33 -90 -59 -170 l-47 -145 -133 -7 c-73 -3 -139
-8 -146 -11 -11 -4 -15 -49 -17 -212 -4 -234 -1 -225 -89 -225 -89 0 -85 -11
-84 238 l0 219 -123 -1 c-96 -1 -126 -4 -138 -16 -21 -22 -53 -109 -75 -204
-19 -87 -31 -101 -91 -111 -84 -14 -99 21 -119 286 -11 147 -39 319 -52 319
-4 0 -8 -5 -8 -11 0 -21 -68 -157 -89 -178 -19 -19 -33 -21 -128 -22 -60 -1
-147 -4 -195 -8 l-88 -6 49 -65 c44 -58 569 -578 791 -784 47 -44 144 -140
215 -214 l131 -136 164 165 c161 161 408 402 740 724 162 157 289 300 277 312
-8 7 -313 6 -337 -2 -21 -7 -49 -82 -83 -229 -15 -60 -30 -113 -35 -118 -4 -4
-29 -9 -55 -10 -70 -3 -82 22 -106 232 -35 296 -45 377 -51 395 -7 19 -8 19
-19 -5z"/>
<path d="M3188 8123 c-37 -43 -40 -62 -14 -88 30 -30 55 -32 84 -6 28 23 28
61 2 89 -25 27 -52 28 -72 5z"/>
<path d="M8094 8115 c-23 -36 -21 -75 6 -97 31 -25 55 -22 80 9 16 20 20 36
16 57 -12 56 -73 75 -102 31z"/>
<path d="M3816 8088 c-9 -36 -7 -106 4 -113 6 -4 10 20 10 64 0 74 -4 86 -14
49z"/>
<path d="M7532 7955 c0 -16 2 -22 5 -12 2 9 2 23 0 30 -3 6 -5 -1 -5 -18z"/>
<path d="M3823 7875 c4 -44 16 -116 27 -160 26 -101 106 -268 164 -344 25 -32
177 -185 338 -342 488 -472 1169 -1158 1248 -1256 41 -51 79 -93 84 -93 6 0
37 35 68 78 106 144 250 296 887 932 350 349 652 655 671 680 19 25 37 47 40
50 6 6 49 72 72 110 40 69 98 254 98 316 0 24 -1 24 -25 8 -14 -9 -25 -22 -25
-30 0 -9 -10 -11 -34 -7 -27 4 -35 2 -40 -13 -3 -11 -17 -31 -31 -46 -14 -15
-37 -44 -51 -65 -44 -66 -101 -126 -424 -448 -173 -173 -319 -318 -325 -324
-5 -5 -75 -74 -155 -153 -142 -139 -347 -347 -622 -631 -135 -140 -137 -141
-147 -115 -5 14 -16 30 -24 35 -8 4 -22 23 -31 41 -18 34 -397 417 -601 605
-201 187 -770 751 -786 779 -5 8 -33 39 -64 69 -30 30 -55 60 -55 67 0 6 -4
12 -10 12 -5 0 -10 7 -10 15 0 8 -7 15 -15 15 -8 0 -15 7 -15 15 0 25 -23 65
-37 65 -7 0 -13 7 -13 15 0 17 -29 34 -47 28 -7 -3 -13 0 -13 5 0 5 -11 7 -24
5 -32 -7 -34 -4 -55 105 -15 73 -24 61 -18 -23z m3677 -59 c0 -3 -4 -8 -10
-11 -5 -3 -10 -1 -10 4 0 6 5 11 10 11 6 0 10 -2 10 -4z"/>
<path d="M1533 7921 c-14 -14 -38 -70 -64 -154 -23 -72 -51 -149 -61 -171 -19
-38 -20 -38 -64 -31 -25 3 -183 3 -351 -1 -304 -7 -305 -7 -334 -31 -38 -32
-37 -54 6 -92 l36 -31 361 0 c434 0 404 -8 473 134 25 51 45 103 45 116 0 53
19 -4 69 -205 54 -220 68 -288 101 -470 25 -137 35 -160 70 -175 56 -23 90 6
114 101 8 30 26 98 40 151 15 53 33 134 42 180 8 46 24 110 34 143 23 70 48
186 52 234 4 51 24 48 37 -5 24 -93 78 -176 128 -195 14 -5 86 -9 159 -8 l134
2 0 74 0 73 -119 0 c-84 0 -122 4 -129 13 -6 7 -25 49 -42 92 -17 44 -50 118
-73 165 -33 67 -47 86 -66 88 -55 8 -88 -39 -140 -198 -40 -124 -101 -388
-116 -498 -4 -32 -11 -52 -18 -49 -12 4 -18 26 -36 142 -27 175 -51 285 -75
349 -14 37 -26 76 -26 86 0 25 -56 133 -83 158 -35 33 -77 38 -104 13z"/>
<path d="M9742 7910 c-31 -39 -79 -147 -87 -195 -4 -22 -14 -62 -22 -90 -37
-126 -62 -227 -78 -312 -9 -50 -23 -100 -31 -110 -12 -16 -13 -14 -15 22 -1
44 -1 50 -18 150 -18 106 -48 219 -69 262 -10 21 -24 61 -31 88 -18 73 -68
151 -110 171 -35 17 -36 17 -55 -9 -11 -14 -25 -41 -31 -59 -7 -18 -29 -80
-50 -138 -21 -58 -41 -109 -46 -114 -5 -6 -57 -11 -116 -12 -60 0 -122 -4
-139 -8 -30 -7 -32 -9 -37 -69 -3 -34 -2 -66 2 -70 5 -5 81 -7 169 -5 l161 3
35 34 c20 19 47 63 63 102 15 38 31 69 34 69 6 0 83 -295 105 -400 7 -36 27
-135 43 -221 17 -86 33 -163 36 -171 9 -23 50 -41 74 -33 31 10 46 46 91 217
22 84 51 196 65 248 49 180 83 315 95 374 6 32 15 54 19 50 4 -5 15 -36 25
-69 24 -78 70 -158 109 -191 31 -26 34 -27 127 -20 52 3 209 6 348 6 l254 0
29 32 c37 38 35 73 -4 102 -28 20 -37 21 -340 18 -172 -1 -319 -5 -328 -8 -18
-5 -49 60 -116 246 -46 128 -55 140 -101 139 -29 0 -42 -7 -60 -29z"/>
<path d="M2752 7727 c-39 -47 -38 -410 2 -607 3 -14 15 -92 27 -175 11 -82 29
-177 39 -210 66 -213 122 -379 154 -450 7 -16 26 -66 41 -110 101 -293 224
-507 379 -660 95 -94 190 -161 426 -302 198 -118 423 -252 440 -263 8 -5 58
-35 110 -66 160 -95 211 -134 320 -244 112 -113 200 -219 345 -417 50 -67 97
-125 105 -129 15 -7 482 -26 488 -20 2 2 -2 57 -8 122 -5 66 -13 232 -16 369
-5 248 -35 604 -55 647 -10 25 -6 -66 7 -149 4 -29 3 -43 -5 -43 -6 0 -11 18
-11 43 0 61 -11 117 -21 111 -5 -3 -6 -10 -3 -16 4 -7 2 -8 -5 -4 -6 4 -9 12
-6 17 4 5 1 9 -4 9 -6 0 -11 10 -12 23 0 16 -4 11 -15 -18 -8 -22 -14 -49 -13
-60 3 -51 -2 -105 -11 -105 -5 0 -11 50 -12 118 l-3 117 -80 6 c-45 3 -61 6
-37 7 40 2 42 4 42 32 0 28 -2 30 -40 30 -28 0 -40 4 -40 14 0 10 -14 16 -42
19 l-43 4 43 1 c35 2 42 5 42 22 0 14 -7 20 -24 20 -13 0 -45 2 -72 5 -42 5
-46 4 -26 -6 37 -20 25 -27 -48 -28 l-70 0 0 39 c0 36 -3 40 -25 40 -18 0 -25
5 -25 20 0 15 7 20 25 20 32 0 32 22 0 55 -19 18 -37 25 -64 25 -36 0 -39 -2
-50 -41 -7 -23 -15 -39 -17 -36 -3 3 -6 37 -7 76 0 39 -3 68 -6 64 -3 -5 -21
-9 -39 -10 -29 -2 -32 0 -22 12 16 19 10 19 -26 0 -25 -13 -30 -13 -47 3 -17
15 -18 26 -12 85 9 93 3 107 -46 107 -28 0 -39 4 -39 15 0 26 -69 19 -96 -10
-34 -37 -74 -32 -53 7 8 15 6 28 -5 53 -9 18 -16 36 -16 39 0 4 -11 19 -25 34
-14 15 -25 21 -25 15 0 -7 5 -15 10 -18 17 -11 40 -75 40 -114 0 -20 -7 -47
-16 -59 -19 -28 -11 -41 12 -21 16 13 17 11 10 -16 -4 -20 -4 -25 3 -16 7 12
14 12 33 4 13 -7 17 -12 11 -12 -7 -1 -13 -7 -13 -15 0 -7 -11 -21 -24 -30
-23 -14 -26 -14 -40 0 -14 14 -20 34 -17 56 0 4 -18 0 -42 -8 -112 -41 -323
14 -494 129 -114 77 -285 226 -378 329 -38 43 -82 91 -97 107 -14 16 -34 41
-43 55 -10 14 -22 23 -28 19 -6 -3 -7 -1 -3 6 9 13 -70 141 -87 141 -6 0 -8 3
-5 6 4 3 -9 32 -27 63 -113 200 -212 488 -255 741 -6 36 -15 81 -20 100 -5 19
-14 58 -21 85 -36 145 -133 256 -177 202z m628 -1407 c0 -5 -4 -10 -10 -10 -5
0 -10 5 -10 10 0 6 5 10 10 10 6 0 10 -4 10 -10z m1180 -535 c0 -17 -2 -18
-24 -9 -23 9 -20 24 4 24 11 0 20 -7 20 -15z m130 -85 c0 -29 4 -40 15 -40 8
0 15 -7 15 -15 0 -11 -11 -15 -41 -15 -38 0 -41 2 -35 23 3 12 6 27 6 32 0 6
5 3 10 -5 7 -11 10 -5 10 23 0 20 5 37 10 37 6 0 10 -18 10 -40z m-327 -7 c-7
-2 -21 -2 -30 0 -10 3 -4 5 12 5 17 0 24 -2 18 -5z m265 -36 c-25 -25 -62 -41
-66 -28 -2 6 -19 11 -37 11 -19 0 -37 5 -40 10 -4 6 10 10 34 10 21 0 41 -5
43 -10 5 -16 57 12 65 35 6 18 7 18 11 3 2 -10 -3 -24 -10 -31z m-258 13 c0
-5 -17 -10 -37 -10 -28 0 -34 3 -23 10 20 13 60 13 60 0z m430 -79 c5 -11 10
-26 10 -34 0 -37 -154 -23 -166 15 -9 29 11 38 83 38 51 0 64 -3 73 -19z m2
-101 c-2 -16 -8 -30 -13 -30 -5 0 -12 -1 -16 -2 -3 -2 -7 4 -9 12 -1 8 -5 23
-9 33 -6 14 -2 17 22 17 27 0 29 -2 25 -30z m228 -80 c0 -5 -9 -10 -20 -10
-11 0 -20 5 -20 10 0 6 9 10 20 10 11 0 20 -4 20 -10z m497 -372 c-2 -13 -4
-3 -4 22 0 25 2 35 4 23 2 -13 2 -33 0 -45z m-187 -43 c0 -3 16 -29 35 -58 19
-28 35 -55 35 -60 0 -11 30 -41 31 -30 1 20 30 -90 44 -171 17 -103 18 -126 6
-126 -9 0 -26 41 -92 220 -23 63 -59 147 -79 185 -56 105 -58 120 -15 80 19
-19 35 -36 35 -40z m219 -67 c-1 -39 -2 -41 -8 -13 -4 17 -5 36 -3 43 8 23 12
12 11 -30z m-122 -15 c-3 -10 -5 -4 -5 12 0 17 2 24 5 18 2 -7 2 -21 0 -30z"/>
<path d="M8522 7703 c-46 -47 -77 -116 -93 -208 -6 -38 -15 -83 -20 -99 -5
-16 -9 -42 -9 -57 0 -55 -78 -347 -130 -485 -41 -109 -152 -327 -180 -354 -3
-3 -9 -12 -15 -21 -66 -105 -192 -257 -288 -348 -39 -36 -84 -80 -101 -97 -95
-93 -239 -201 -331 -248 -66 -33 -188 -66 -246 -66 -74 0 -181 68 -194 123 -5
21 -9 26 -12 15 -2 -9 3 -31 12 -48 16 -30 15 -32 -7 -52 l-23 -21 28 7 c26 6
27 6 10 -14 -21 -25 -43 -26 -43 -2 0 15 -9 17 -71 14 -52 -3 -74 0 -80 10 -7
10 -9 10 -9 1 0 -9 -19 -13 -59 -13 l-59 0 -20 -42 c-12 -24 -21 -35 -22 -25
0 15 -10 17 -75 17 -62 0 -79 -4 -95 -20 -16 -16 -18 -25 -11 -38 9 -15 10
-15 11 3 0 17 2 17 10 5 5 -8 9 -26 9 -40 -1 -17 -3 -19 -6 -7 -4 16 -6 16
-33 1 -19 -12 -31 -30 -38 -58 -8 -34 -10 -36 -11 -13 -1 24 -5 27 -33 27 -65
0 -151 -20 -168 -38 -9 -10 -22 -36 -28 -58 -5 -21 -10 -31 -11 -21 -1 21 -19
23 -27 2 -13 -32 -73 -7 -66 28 1 4 -2 7 -7 7 -5 0 -11 8 -15 18 -3 9 -9 23
-12 31 -4 9 -2 11 5 7 6 -4 11 -1 11 7 0 8 7 17 15 21 8 3 15 16 15 29 0 13 9
33 21 46 12 12 22 30 24 39 1 9 7 16 13 15 5 -1 8 7 5 18 -7 25 -7 26 -85
-101 -36 -58 -77 -141 -92 -185 -15 -44 -31 -87 -35 -95 -14 -26 -49 -200 -61
-300 -6 -52 -12 -287 -13 -523 l-2 -427 198 0 c193 0 223 4 252 34 6 6 35 47
65 90 57 83 238 303 324 395 107 113 352 289 551 396 50 26 145 81 211 121 67
41 125 74 129 74 4 0 91 56 193 123 383 253 476 387 695 992 94 260 133 393
162 540 13 72 29 153 34 180 12 62 27 163 41 275 13 111 12 343 -3 400 -10 38
-16 45 -40 48 -21 3 -36 -6 -65 -35z m-149 -608 c-3 -9 -8 -14 -10 -11 -3 3
-2 9 2 15 9 16 15 13 8 -4z m132 -355 c3 -5 1 -10 -4 -10 -6 0 -11 5 -11 10 0
6 2 10 4 10 3 0 8 -4 11 -10z m5 -39 c0 -4 -6 -8 -14 -8 -8 0 -12 6 -9 14 5
13 23 9 23 -6z m-13 -43 c-3 -8 -6 -5 -6 6 -1 11 2 17 5 13 3 -3 4 -12 1 -19z
m-510 -380 c-3 -8 -6 -5 -6 6 -1 11 2 17 5 13 3 -3 4 -12 1 -19z m-2057 -821
c0 -7 -7 -22 -15 -33 -13 -17 -13 -16 -3 14 13 34 18 40 18 19z m-26 -118 c-2
-4 0 -10 5 -14 6 -3 8 -12 4 -21 -4 -11 -9 -12 -19 -3 -11 9 -14 6 -14 -15 0
-14 -4 -26 -10 -26 -5 0 -10 9 -10 19 0 11 5 23 10 26 6 3 10 14 10 24 0 10 7
18 15 18 8 0 12 -4 9 -8z m-67 -201 c-3 -8 -6 -5 -6 6 -1 11 2 17 5 13 3 -3 4
-12 1 -19z"/>
<path d="M8074 7711 c-18 -11 -41 -40 -54 -67 -29 -60 -31 -156 -6 -294 21
-118 106 -508 115 -534 6 -15 14 2 34 65 31 101 82 298 92 355 10 62 -12 263
-40 368 -33 124 -69 151 -141 107z"/>
<path d="M3206 7695 c-13 -14 -33 -58 -45 -97 -12 -40 -26 -86 -31 -103 -5
-16 -14 -72 -21 -123 -10 -79 -9 -104 5 -177 33 -167 123 -414 145 -400 11 6
19 48 31 165 5 52 23 187 40 300 34 234 36 290 14 366 -25 87 -91 120 -138 69z"/>
<path d="M4327 7683 c-10 -9 -9 -23 2 -23 5 0 11 7 15 15 5 15 -5 20 -17 8z"/>
<path d="M7787 7409 c-11 -6 -25 -26 -33 -45 -24 -57 -17 -120 27 -244 92
-261 102 -303 103 -445 1 -144 -16 -227 -60 -296 -33 -54 -30 -59 12 -18 43
40 102 122 174 239 l53 84 -12 66 c-30 167 -130 558 -161 627 -17 38 -23 43
-52 43 -18 0 -41 -5 -51 -11z"/>
<path d="M3502 7355 c-42 -35 -44 -43 -138 -495 -39 -188 -39 -185 -14 -232
101 -195 348 -459 567 -606 34 -23 64 -42 67 -42 3 0 27 -14 53 -30 86 -55
231 -87 273 -60 18 11 19 10 -70 55 -100 50 -174 108 -289 225 -126 127 -181
226 -226 405 -32 125 -17 215 69 422 50 122 53 140 31 182 -26 52 -73 55 -109
8 -15 -19 -26 -37 -26 -40 0 -4 -16 -42 -36 -84 -20 -43 -49 -130 -66 -193
-35 -134 -34 -189 7 -363 25 -109 32 -177 16 -177 -11 0 -57 67 -71 105 -6 17
-20 76 -30 133 -15 81 -17 116 -9 170 12 86 56 281 75 335 23 65 54 198 54
235 0 68 -72 94 -128 47z"/>
<path d="M2478 7233 c-22 -3 -29 -11 -34 -40 -20 -106 36 -552 97 -773 112
-405 296 -779 547 -1110 128 -169 206 -256 352 -392 138 -129 251 -216 465
-357 253 -166 499 -285 761 -366 66 -20 130 -41 143 -46 13 -5 26 -8 28 -5 12
11 -94 186 -113 186 -23 0 -283 100 -391 150 -212 100 -490 284 -715 475 -73
61 -153 134 -177 161 -24 27 -65 72 -90 99 -364 394 -606 882 -720 1450 -37
185 -51 295 -51 401 0 45 -3 102 -6 128 -6 44 -8 46 -38 45 -17 -1 -43 -4 -58
-6z"/>
<path d="M8796 7103 c-32 -651 -244 -1218 -650 -1739 -91 -118 -227 -260 -346
-364 -41 -36 -86 -75 -100 -88 -67 -62 -269 -205 -390 -277 -184 -111 -395
-210 -593 -279 -87 -30 -91 -32 -104 -71 -7 -22 -23 -59 -34 -83 -12 -24 -20
-45 -17 -47 9 -9 343 116 500 189 491 225 977 624 1268 1041 35 50 73 104 86
120 34 46 119 195 189 335 206 408 296 764 331 1298 l7 102 -70 0 -70 0 -7
-137z"/>
<path d="M7535 7205 c-42 -41 -35 -103 29 -248 66 -151 80 -209 79 -317 -2
-129 -65 -295 -156 -415 -54 -69 -199 -204 -282 -261 -76 -51 -113 -89 -101
-101 11 -11 120 17 177 46 104 52 252 159 358 259 l104 97 24 125 c58 304 37
493 -78 717 -65 126 -103 150 -154 98z"/>
<path d="M7275 6870 c-3 -5 1 -10 9 -10 9 0 16 5 16 10 0 6 -4 10 -9 10 -6 0
-13 -4 -16 -10z"/>
<path d="M7235 6829 c-11 -17 1 -21 15 -4 8 9 8 15 2 15 -6 0 -14 -5 -17 -11z"/>
<path d="M7196 6783 c-6 -14 -5 -15 5 -6 7 7 10 15 7 18 -3 3 -9 -2 -12 -12z"/>
<path d="M7448 6763 c5 -21 7 -23 10 -9 2 10 0 22 -6 28 -6 6 -7 0 -4 -19z"/>
<path d="M3901 6714 c0 -11 3 -14 6 -6 3 7 2 16 -1 19 -3 4 -6 -2 -5 -13z"/>
<path d="M3911 6657 c-2 -42 53 -142 133 -242 23 -27 94 -104 158 -170 65 -66
118 -123 118 -127 0 -5 5 -8 10 -8 14 0 -9 37 -44 72 -23 22 -27 31 -18 40 17
17 15 78 -2 78 -10 0 -16 -13 -19 -37 -3 -32 -5 -35 -11 -16 -5 13 -14 19 -22
16 -8 -3 -14 1 -14 10 0 8 -6 18 -12 21 -7 3 -4 4 8 1 25 -6 49 18 40 41 -5
13 -14 15 -39 10 -17 -4 -33 -11 -35 -16 -4 -12 -32 14 -32 29 0 6 -8 11 -17
11 -15 0 -15 2 2 14 18 13 18 14 -3 20 -12 4 -27 4 -33 0 -8 -4 -9 1 -4 17 4
16 3 19 -3 11 -6 -10 -19 1 -49 40 -22 29 -44 64 -48 77 -4 13 -17 34 -29 48
-11 13 -24 39 -27 56 -6 31 -6 31 -8 4z"/>
<path d="M4280 6671 c0 -5 7 -15 17 -22 15 -13 15 -12 4 9 -12 23 -21 28 -21
13z"/>
<path d="M7106 6665 c-3 -8 -1 -15 4 -15 6 0 10 7 10 15 0 8 -2 15 -4 15 -2 0
-6 -7 -10 -15z"/>
<path d="M7446 6660 c-10 -34 -49 -114 -59 -121 -5 -3 -8 -9 -8 -13 3 -20 0
-26 -9 -21 -5 3 -10 -2 -10 -12 0 -10 -20 -38 -44 -62 l-44 -43 -17 31 c-13
26 -18 29 -29 19 -8 -9 -30 -12 -59 -10 -43 4 -47 6 -47 29 0 46 -27 7 -52
-73 -18 -59 -28 -76 -45 -80 -13 -4 -23 -10 -23 -15 0 -5 -8 -9 -18 -9 -23 0
-54 -51 -34 -57 6 -3 12 -13 12 -23 0 -10 5 -22 12 -26 8 -5 9 -2 5 9 -9 24 9
21 27 -5 13 -18 17 -19 31 -8 9 8 14 21 12 30 -3 13 2 16 19 14 13 -1 26 2 30
7 3 5 10 9 16 9 6 0 3 -9 -7 -20 -14 -16 -20 -17 -27 -8 -6 10 -8 8 -8 -4 0
-10 -4 -18 -9 -18 -5 0 -13 -12 -19 -27 -12 -35 -48 -73 -67 -73 -18 0 -19
-12 -2 -29 10 -11 9 -14 -1 -18 -6 -3 -9 -9 -6 -15 4 -6 18 10 33 35 14 24 52
73 84 107 31 34 57 66 57 71 0 4 -12 17 -26 28 -20 15 -22 21 -10 21 9 0 16 4
16 9 0 5 15 9 33 8 l34 -1 -26 -22 c-14 -12 -23 -26 -18 -30 4 -4 20 5 36 20
24 23 28 34 25 67 -3 37 -3 39 13 24 13 -14 14 -18 2 -25 -7 -5 -10 -12 -6
-16 7 -8 47 23 47 37 0 4 -9 11 -21 14 -11 4 -18 9 -16 12 3 2 15 -1 28 -8 20
-10 25 -9 42 12 10 13 29 36 42 51 56 63 132 213 122 242 -2 6 -7 0 -11 -14z"/>
<path d="M7029 6573 c-13 -16 -12 -17 4 -4 16 13 21 21 13 21 -2 0 -10 -8 -17
-17z"/>
<path d="M9442 6485 c-22 -27 -55 -141 -73 -250 -20 -123 -69 -359 -80 -387
-13 -31 -25 -34 -53 -13 -16 12 -57 15 -198 15 -177 0 -178 0 -194 -25 -33
-50 22 -98 88 -76 18 6 83 12 145 13 l112 2 51 -48 c28 -26 56 -46 61 -44 15
5 93 248 109 335 6 37 16 82 20 98 5 17 14 49 20 73 6 23 14 42 19 42 12 0 31
-192 31 -310 0 -155 43 -639 62 -703 15 -50 57 -75 82 -48 20 22 47 101 75
221 12 52 26 109 31 125 5 17 18 71 30 120 33 140 27 135 180 135 113 0 133
-3 165 -21 64 -38 131 3 122 74 -9 63 -54 83 -120 51 -29 -14 -49 -14 -153 -5
-65 6 -138 13 -161 17 -41 6 -42 5 -58 -33 -33 -77 -55 -152 -76 -259 -12 -60
-27 -119 -35 -131 -8 -12 -14 -29 -14 -38 0 -8 -4 -15 -8 -15 -8 0 -18 129
-42 560 -11 193 -36 426 -51 484 -17 67 -54 84 -87 41z"/>
<path d="M1787 6468 c-21 -47 -25 -63 -62 -241 -18 -89 -45 -220 -60 -292 -15
-71 -31 -134 -36 -139 -5 -6 -21 2 -40 20 l-30 29 -192 7 c-106 3 -205 9 -220
13 -22 6 -35 2 -65 -22 -28 -23 -43 -28 -62 -23 -14 4 -72 10 -128 14 -99 7
-103 7 -122 -16 -38 -45 -30 -48 124 -48 l144 0 38 -35 c46 -41 53 -42 88 -14
29 22 148 38 303 39 l72 0 41 -54 c40 -53 67 -70 88 -57 21 13 80 251 112 453
26 158 27 165 41 151 5 -5 16 -156 24 -352 24 -565 46 -730 97 -747 34 -10 47
17 82 162 53 221 97 387 113 417 l14 27 165 0 c95 0 174 4 185 10 22 12 27 74
7 87 -7 4 -67 8 -133 9 -66 0 -159 4 -206 9 l-87 8 -15 -54 c-33 -111 -77
-293 -83 -339 -6 -48 -19 -79 -28 -69 -7 7 -24 269 -31 489 -7 214 -46 530
-71 568 -21 32 -49 28 -67 -10z m-127 -772 c0 -3 -4 -8 -10 -11 -5 -3 -10 -1
-10 4 0 6 5 11 10 11 6 0 10 -2 10 -4z"/>
<path d="M7220 6472 c0 -8 9 -12 22 -10 30 4 33 23 3 23 -14 0 -25 -6 -25 -13z"/>
<path d="M6920 6465 c-11 -13 -10 -14 4 -9 9 3 16 10 16 15 0 13 -6 11 -20 -6z"/>
<path d="M4140 6365 c7 -9 15 -13 17 -11 7 7 -7 26 -19 26 -6 0 -6 -6 2 -15z"/>
<path d="M6535 6149 c-16 -10 -25 -19 -19 -19 7 0 22 9 35 20 30 24 23 24 -16
-1z"/>
<path d="M4837 6149 c7 -7 15 -10 18 -7 3 3 -2 9 -12 12 -14 6 -15 5 -6 -5z"/>
<path d="M4887 6109 c7 -7 15 -10 18 -7 3 3 -2 9 -12 12 -14 6 -15 5 -6 -5z"/>
<path d="M6960 6110 c0 -5 6 -10 14 -10 8 0 18 5 21 10 3 6 -3 10 -14 10 -12
0 -21 -4 -21 -10z"/>
<path d="M6470 6093 c0 -5 -10 -15 -22 -21 -13 -6 -18 -11 -12 -11 16 -1 50
27 41 35 -4 4 -7 3 -7 -3z"/>
<path d="M4350 6086 c0 -2 7 -9 15 -16 13 -11 14 -10 9 4 -5 14 -24 23 -24 12z"/>
<path d="M4920 6080 c0 -5 5 -10 10 -10 6 0 10 5 10 10 0 6 -4 10 -10 10 -5 0
-10 -4 -10 -10z"/>
<path d="M6906 6051 c-4 -7 -5 -15 -2 -18 9 -9 19 4 14 18 -4 11 -6 11 -12 0z"/>
<path d="M4981 6037 c2 -1 13 -9 24 -17 19 -14 19 -14 6 3 -7 9 -18 17 -24 17
-6 0 -8 -1 -6 -3z"/>
<path d="M6353 6008 c-24 -17 -41 -34 -38 -36 7 -7 85 47 85 58 0 13 1 14 -47
-22z"/>
<path d="M6945 5986 c-22 -26 -35 -57 -34 -78 1 -20 2 -20 6 -4 3 10 14 35 25
54 19 35 21 50 3 28z"/>
<path d="M5050 5980 c8 -5 20 -10 25 -10 6 0 3 5 -5 10 -8 5 -19 10 -25 10 -5
0 -3 -5 5 -10z"/>
<path d="M5085 5950 c3 -5 8 -10 11 -10 2 0 4 5 4 10 0 6 -5 10 -11 10 -5 0
-7 -4 -4 -10z"/>
<path d="M6265 5933 c-93 -80 -135 -124 -129 -135 5 -7 10 -4 16 11 4 12 12
19 18 16 6 -4 9 -3 8 2 -4 11 62 73 78 73 7 0 19 14 28 30 8 17 14 30 13 30
-1 0 -15 -12 -32 -27z"/>
<path d="M5140 5907 c8 -7 21 -19 29 -27 11 -13 12 -12 3 6 -7 12 -19 24 -29
28 -16 5 -16 4 -3 -7z"/>
<path d="M5210 5840 c6 -11 15 -20 20 -20 6 0 2 9 -7 20 -10 11 -19 20 -21 20
-1 0 2 -9 8 -20z"/>
<path d="M5240 5800 c0 -5 9 -14 20 -20 11 -6 20 -7 20 -3 0 5 -9 14 -20 21
-11 7 -20 8 -20 2z"/>
<path d="M6098 5775 c-26 -34 -22 -42 7 -15 25 23 32 40 18 40 -5 0 -16 -11
-25 -25z"/>
<path d="M5280 5750 c0 -5 5 -10 11 -10 5 0 7 5 4 10 -3 6 -8 10 -11 10 -2 0
-4 -4 -4 -10z"/>
<path d="M5300 5710 c-7 -14 -8 -20 -1 -16 15 10 51 -12 61 -37 6 -15 9 -17 9
-6 1 9 -12 31 -28 49 l-29 33 -12 -23z"/>
<path d="M5380 5623 c0 -6 5 -15 10 -18 6 -3 10 -15 10 -25 0 -10 5 -22 10
-25 18 -11 10 29 -10 55 -11 14 -20 20 -20 13z"/>
<path d="M6068 5597 c-3 -19 -2 -25 4 -19 6 6 8 18 6 28 -3 14 -5 12 -10 -9z"/>
<path d="M5430 5541 c0 -6 4 -13 10 -16 6 -3 7 1 4 9 -7 18 -14 21 -14 7z"/>
<path d="M8852 5528 c-17 -17 -15 -52 6 -78 18 -22 19 -22 50 -6 53 28 40 96
-18 96 -14 0 -31 -5 -38 -12z"/>
<path d="M2420 5506 c-19 -51 17 -91 59 -64 38 23 19 88 -25 88 -17 0 -27 -8
-34 -24z"/>
<path d="M6024 5517 c-3 -9 -12 -17 -20 -17 -8 0 -14 -6 -14 -14 0 -26 16 -26
40 -1 18 19 21 28 12 37 -9 9 -13 7 -18 -5z"/>
<path d="M9187 5499 c-28 -39 5 -79 53 -64 29 9 38 54 15 72 -27 19 -52 16
-68 -8z"/>
<path d="M5467 5455 c3 -16 10 -31 15 -33 4 -2 8 -13 8 -23 0 -11 5 -30 12
-42 6 -12 17 -42 25 -67 l13 -45 -5 40 c-6 41 -22 89 -56 160 -16 34 -18 36
-12 10z"/>
<path d="M5100 5410 c0 -5 5 -10 10 -10 6 0 10 5 10 10 0 6 -4 10 -10 10 -5 0
-10 -4 -10 -10z"/>
<path d="M9200 5252 c-18 -15 -22 -25 -16 -46 8 -33 29 -42 62 -28 31 15 34
66 5 82 -25 13 -25 13 -51 -8z"/>
<path d="M2754 5246 c-9 -24 0 -58 18 -70 14 -8 22 -6 40 11 19 19 20 26 10
48 -13 28 -59 35 -68 11z"/>
<path d="M8522 5248 c-19 -19 -14 -45 10 -62 12 -9 26 -16 30 -16 13 0 38 58
32 74 -7 19 -55 21 -72 4z"/>
<path d="M8857 5239 c-18 -25 -11 -56 14 -70 28 -15 59 6 59 39 0 51 -46 70
-73 31z"/>
<path d="M2098 5243 c-9 -17 -2 -46 13 -56 26 -17 51 -1 47 30 -2 22 -9 29
-30 31 -14 2 -28 0 -30 -5z"/>
<path d="M2422 5238 c-36 -36 8 -92 54 -67 41 22 26 79 -21 79 -12 0 -26 -5
-33 -12z"/>
<path d="M8500 5000 c-18 -34 -9 -65 20 -68 41 -4 55 11 44 50 -12 40 -47 50
-64 18z"/>
<path d="M8856 4998 c-22 -31 -20 -54 6 -72 28 -20 33 -20 52 0 21 21 20 57
-2 77 -25 23 -38 21 -56 -5z"/>
<path d="M2422 4998 c-18 -18 -15 -53 6 -71 23 -21 24 -21 50 2 37 32 23 81
-23 81 -12 0 -26 -5 -33 -12z"/>
<path d="M2758 4984 c-22 -47 24 -83 63 -48 23 21 24 37 3 58 -23 24 -53 19
-66 -10z"/>
<path d="M9202 4968 c2 -35 7 -44 25 -46 14 -2 27 5 38 22 23 34 6 66 -36 66
-29 0 -30 -1 -27 -42z"/>
<path d="M2102 4988 c7 -19 38 -22 38 -4 0 10 -9 16 -21 16 -12 0 -19 -5 -17
-12z"/>
<path d="M2030 4976 c0 -16 27 -29 41 -20 13 8 -9 34 -27 34 -8 0 -14 -6 -14
-14z"/>
<path d="M8197 4752 c-22 -24 -21 -45 1 -65 25 -22 49 -21 62 2 14 27 13 47
-6 65 -20 21 -37 20 -57 -2z"/>
<path d="M2421 4746 c-7 -8 -11 -30 -9 -48 3 -30 6 -33 37 -33 44 0 59 22 41
64 -14 34 -48 42 -69 17z"/>
<path d="M2744 4735 c-24 -36 -6 -75 34 -75 35 0 52 16 52 50 0 53 -57 69 -86
25z"/>
<path d="M3093 4748 c-32 -41 -17 -78 32 -78 29 0 36 4 41 27 4 14 2 33 -3 42
-13 20 -57 26 -70 9z"/>
<path d="M8502 4748 c-7 -7 -12 -24 -12 -38 0 -31 17 -50 45 -50 28 0 45 19
45 50 0 31 -17 50 -45 50 -12 0 -26 -5 -33 -12z"/>
<path d="M8860 4740 c-25 -25 -26 -52 -2 -73 39 -36 82 -11 82 45 0 48 -45 63
-80 28z"/>
<path d="M9199 4736 c-14 -30 -5 -72 17 -80 24 -9 64 20 64 48 0 26 -28 56
-54 56 -9 0 -21 -11 -27 -24z"/>
<path d="M2036 4735 c-20 -20 -20 -26 -2 -50 18 -25 46 -13 46 20 0 14 0 28 1
33 1 14 -29 13 -45 -3z"/>
<path d="M2100 4721 c0 -24 18 -37 32 -23 8 8 7 16 -2 27 -17 21 -30 19 -30
-4z"/>
<path d="M2063 4458 c-20 -27 -21 -48 -4 -70 16 -19 22 -21 44 -11 34 16 44
49 21 74 -20 22 -47 25 -61 7z"/>
<path d="M2410 4450 c-24 -24 -25 -43 -4 -64 20 -20 25 -20 63 2 38 21 39 34
5 61 -33 26 -39 26 -64 1z"/>
<path d="M2752 4458 c-7 -7 -12 -24 -12 -38 0 -32 17 -50 45 -50 25 0 55 29
55 52 0 36 -62 62 -88 36z"/>
<path d="M3082 4458 c-7 -7 -12 -24 -12 -38 0 -31 17 -50 45 -50 29 0 45 19
45 52 0 40 -51 63 -78 36z"/>
<path d="M8501 4456 c-16 -19 -10 -66 10 -79 9 -5 28 -7 42 -3 22 5 27 12 27
39 0 18 -5 38 -12 45 -16 16 -53 15 -67 -2z"/>
<path d="M8855 4450 c-36 -39 3 -89 62 -78 22 4 31 62 12 84 -16 20 -53 17
-74 -6z"/>
<path d="M9200 4439 c-29 -53 14 -89 60 -51 22 17 23 23 12 46 -15 32 -56 36
-72 5z"/>
<path d="M3428 4238 l-23 -23 27 -3 c41 -5 49 -22 42 -86 -5 -45 -10 -56 -23
-52 -77 20 -91 13 -45 -23 36 -29 64 -26 102 8 30 28 32 34 32 95 0 53 -4 70
-20 86 -26 26 -65 25 -92 -2z"/>
<path d="M3291 4240 c-7 -4 -12 -13 -10 -19 3 -8 10 -8 23 2 21 15 9 31 -13
17z"/>
<path d="M7804 4195 c-26 -62 -10 -115 34 -115 40 0 71 107 40 138 -24 24 -58
14 -74 -23z m38 -29 c4 -18 1 -24 -12 -23 -12 1 -15 8 -12 24 6 30 18 29 24
-1z"/>
<path d="M8122 4160 c0 -14 2 -19 5 -12 2 6 2 18 0 25 -3 6 -5 1 -5 -13z"/>
<path d="M8510 4170 c-6 -4 -10 -18 -8 -31 2 -18 10 -25 31 -27 24 -3 27 0 27
26 0 31 -25 47 -50 32z"/>
<path d="M2445 4140 c-3 -5 -1 -10 4 -10 6 0 11 5 11 10 0 6 -2 10 -4 10 -3 0
-8 -4 -11 -10z"/>
<path d="M3288 4116 c-30 -23 -35 -45 -16 -64 23 -23 37 -12 44 33 3 25 5 48
3 50 -2 2 -16 -7 -31 -19z"/>
<path d="M9877 4076 c-66 -24 -99 -65 -110 -141 -13 -82 32 -155 115 -189 73
-31 137 -15 200 48 85 85 66 194 -47 270 -43 30 -97 33 -158 12z m151 -48 c36
-22 71 -85 72 -126 0 -65 -85 -132 -167 -132 -56 0 -77 14 -112 70 -44 72 -15
155 69 198 51 26 83 24 138 -10z"/>
<path d="M9903 4007 c-30 -13 -37 -40 -23 -82 7 -20 9 -53 5 -75 -6 -36 -5
-40 14 -40 11 0 25 9 31 19 11 22 14 178 3 184 -5 3 -18 0 -30 -6z"/>
<path d="M9975 3993 c-17 -16 -17 -25 1 -145 6 -37 17 -48 29 -29 13 23 25
164 14 178 -15 17 -24 17 -44 -4z"/>
<path d="M7854 3806 c-135 -61 -92 -256 57 -256 103 0 171 112 119 197 -37 61
-114 87 -176 59z"/>
<path d="M2065 3781 c-11 -5 -40 -15 -65 -22 -84 -23 -214 -97 -272 -154 -67
-64 -128 -169 -163 -278 -58 -182 -15 -430 102 -587 105 -143 190 -199 367
-244 88 -22 106 -24 183 -15 108 12 227 51 297 98 30 20 89 69 130 109 l77 73
-33 27 c-17 15 -56 44 -85 65 l-54 39 -59 -64 c-105 -115 -240 -163 -386 -139
-132 23 -234 103 -300 236 l-39 79 0 136 0 136 37 74 c65 132 162 206 299 230
144 25 323 -54 404 -177 31 -48 40 -52 55 -24 5 11 37 41 70 66 33 25 60 50
60 55 0 18 -114 132 -164 164 -141 91 -214 117 -346 122 -52 2 -104 0 -115 -5z"/>
<path d="M5613 3130 l2 -630 110 0 110 0 -3 185 -4 185 179 0 c196 0 245 9
349 60 111 54 187 157 219 294 20 86 7 204 -30 281 -40 80 -114 157 -187 193
-112 55 -163 62 -470 62 l-276 0 1 -630z m584 423 c66 -21 130 -73 154 -127
24 -54 25 -165 2 -214 -10 -20 -35 -53 -56 -74 -60 -58 -112 -69 -308 -66
l-164 3 -3 248 -2 247 161 0 c125 0 175 -4 216 -17z"/>
<path d="M9485 3674 c-44 -7 -86 -13 -92 -13 -10 -1 -13 -32 -13 -121 l0 -120
-75 0 -75 0 0 -85 0 -85 74 0 75 0 3 -272 3 -273 37 -60 c47 -77 88 -118 144
-146 51 -24 99 -23 204 7 l60 17 0 89 c0 98 -10 113 -54 84 -14 -8 -42 -18
-64 -22 -34 -5 -43 -2 -75 25 -51 46 -59 93 -55 346 l3 210 115 0 115 0 0 85
0 85 -115 5 -115 5 0 124 c0 75 -4 125 -10 126 -5 2 -46 -3 -90 -11z"/>
<path d="M8660 3436 c-66 -19 -130 -53 -172 -94 -21 -20 -41 -33 -44 -29 -4 3
-2 29 3 57 6 27 8 52 5 55 -3 3 -51 5 -106 5 l-101 0 -2 -471 c-2 -419 0 -470
13 -465 9 3 55 6 102 6 l87 0 3 297 c3 224 7 304 17 324 19 36 96 97 146 114
23 8 69 15 103 15 52 0 70 -5 110 -30 74 -47 84 -81 88 -280 2 -91 1 -228 -2
-305 -2 -77 -1 -139 3 -137 4 1 51 2 105 2 l97 0 -2 277 c-3 309 -12 392 -54
473 -53 104 -122 159 -229 184 -76 18 -109 19 -170 2z"/>
<path d="M3060 3421 c-85 -24 -190 -73 -190 -88 0 -19 51 -142 62 -149 5 -3
17 1 26 9 24 21 81 43 147 57 125 26 246 6 298 -48 31 -32 57 -100 57 -149 0
-34 -1 -35 -32 -29 -148 28 -173 29 -288 13 -137 -20 -202 -49 -266 -120 -80
-89 -91 -199 -30 -295 50 -78 95 -112 180 -137 119 -35 303 2 377 76 21 21 44
39 49 39 6 0 10 -18 10 -39 0 -71 0 -71 117 -71 104 0 105 0 99 23 -17 64 -26
166 -36 397 -11 293 -20 334 -82 405 -53 60 -103 91 -175 110 -79 21 -241 19
-323 -4z m377 -564 c20 -20 6 -82 -28 -126 -43 -53 -94 -75 -190 -79 -126 -6
-186 19 -210 87 -9 26 -8 36 10 65 36 57 115 76 294 72 83 -2 112 -6 124 -19z"/>
<path d="M4851 3424 c-161 -43 -294 -185 -330 -352 -36 -169 13 -329 137 -451
108 -106 244 -150 400 -131 114 15 194 51 279 127 l43 38 -60 53 -61 54 -32
-25 c-141 -107 -319 -101 -427 15 -36 39 -73 98 -66 106 4 4 161 9 349 12
l342 5 3 67 c8 174 -89 359 -230 442 -89 52 -239 69 -347 40z m213 -178 c75
-31 146 -121 146 -186 l0 -30 -246 0 -247 0 7 41 c8 52 45 107 98 148 52 39
179 54 242 27z"/>
<path d="M7010 3426 c-131 -29 -258 -130 -324 -259 -91 -178 -45 -392 116
-541 86 -80 142 -111 240 -132 216 -46 421 62 530 281 107 214 23 483 -187
600 -104 58 -252 78 -375 51z m233 -186 c60 -23 114 -73 149 -140 19 -37 23
-60 23 -135 0 -78 -4 -97 -27 -142 -54 -101 -161 -160 -273 -150 -138 13 -244
110 -273 252 -17 81 18 190 84 259 69 73 206 97 317 56z"/>
<path d="M3900 3423 c3 -72 -11 -878 -16 -897 l-6 -26 113 0 114 0 0 263 c1
292 4 310 75 391 46 52 78 66 170 73 l80 6 6 36 c4 20 15 60 25 90 11 30 19
58 19 63 0 4 -42 8 -93 8 -80 0 -100 -4 -145 -26 -54 -27 -92 -59 -130 -109
l-23 -30 3 80 3 80 -97 3 c-54 1 -98 -1 -98 -5z"/>
<path d="M7802 2964 l1 -463 106 -3 107 -3 -3 465 -3 465 -104 1 -105 1 1
-463z"/>
<path d="M4435 2221 c-109 -50 -153 -155 -106 -256 33 -71 100 -115 175 -115
34 0 135 58 136 77 0 7 -12 20 -26 29 -24 16 -27 16 -54 1 -38 -23 -71 -21
-111 6 -65 44 -63 126 3 167 33 20 81 20 103 -1 15 -14 35 -11 67 13 l30 21
-23 19 c-41 32 -97 58 -126 58 -15 0 -46 -9 -68 -19z"/>
<path d="M6340 2233 c-44 -15 -90 -58 -99 -90 -18 -64 10 -96 110 -131 58 -20
84 -46 59 -62 -22 -14 -72 -11 -94 5 -28 21 -52 19 -70 -6 -21 -30 -11 -44 47
-74 64 -32 94 -32 142 1 56 37 74 64 75 107 0 50 -30 80 -102 101 -61 17 -82
35 -72 60 8 20 52 21 78 1 33 -25 62 -19 76 16 15 36 11 41 -54 63 -51 16 -70
18 -96 9z"/>
<path d="M6755 2227 c-55 -22 -74 -37 -106 -83 -107 -156 64 -348 235 -264 69
33 114 123 101 201 -18 103 -141 182 -230 146z m85 -92 c63 -33 79 -101 35
-153 -14 -17 -39 -33 -55 -37 -53 -12 -120 46 -120 103 0 27 38 82 63 92 32
13 44 12 77 -5z"/>
<path d="M7930 2219 c0 -9 -3 -31 -6 -48 l-6 -31 56 0 56 0 0 -134 0 -133 37
-6 c20 -4 38 -5 39 -4 2 1 4 64 6 139 l3 137 50 3 50 3 -3 40 c-2 22 -5 41 -6
42 0 1 -63 3 -139 5 -121 3 -137 1 -137 -13z"/>
<path d="M8708 2228 c-71 -18 -138 -115 -138 -199 0 -39 58 -120 105 -146 86
-48 180 -17 241 79 34 54 35 101 3 164 -41 79 -130 122 -211 102z m100 -101
c13 -6 30 -24 38 -40 48 -92 -87 -185 -159 -109 -34 35 -37 97 -7 135 29 37
72 42 128 14z"/>
<path d="M9602 2225 c-51 -22 -82 -62 -82 -106 0 -21 7 -45 16 -54 20 -19 76
-48 127 -65 30 -9 38 -16 35 -33 -4 -28 -56 -35 -100 -13 -39 20 -54 20 -62 0
-12 -30 -6 -43 31 -69 88 -60 208 -11 229 93 9 43 -34 85 -109 107 -60 17 -81
34 -71 58 10 26 36 29 66 7 34 -25 50 -25 73 0 23 25 13 48 -27 64 -56 23 -91
26 -126 11z"/>
<path d="M2100 2043 l0 -183 125 0 125 0 0 40 0 40 -80 0 -80 0 0 30 c0 29 0
29 68 32 l67 3 0 35 0 35 -67 3 c-68 3 -68 3 -68 32 0 26 4 29 45 35 25 4 61
5 80 3 l36 -4 -3 38 -3 39 -123 2 -122 2 0 -182z"/>
<path d="M2952 2044 l3 -189 114 2 113 1 3 46 3 46 -79 0 -79 0 0 135 c0 122
-2 135 -17 135 -10 0 -28 3 -41 6 l-22 6 2 -188z"/>
<path d="M3253 2186 l-2 -44 47 1 47 2 6 -140 c4 -77 7 -141 8 -142 0 -2 17
-3 36 -3 l35 0 0 129 c0 71 3 137 6 146 5 13 15 15 50 9 l44 -6 0 46 0 46
-137 0 -138 0 -2 -44z"/>
<path d="M3642 2045 l-4 -185 41 0 40 0 3 63 3 62 78 3 77 3 0 -70 0 -70 33 6
c17 3 34 8 37 10 3 3 6 86 8 184 l4 180 -44 -3 c-25 -2 -44 -8 -44 -15 -1 -7
-2 -40 -3 -73 l-1 -61 -72 3 -73 3 -5 70 -5 70 -35 3 -35 3 -3 -186z"/>
<path d="M4842 2142 c-23 -48 -42 -92 -42 -97 0 -6 -14 -37 -30 -70 -17 -33
-30 -72 -30 -87 0 -26 3 -28 38 -28 34 0 39 3 47 33 l10 32 75 0 74 0 10 -32
c8 -30 13 -33 47 -33 29 0 39 4 39 16 0 9 -27 84 -59 167 -33 84 -62 160 -65
170 -4 12 -16 17 -39 17 -33 0 -35 -3 -75 -88z m96 -89 c11 -26 18 -51 15 -56
-5 -9 -63 0 -76 13 -9 8 21 90 33 90 4 0 17 -21 28 -47z"/>
<path d="M5210 2046 l0 -186 39 0 40 0 3 53 c3 48 5 52 30 55 22 3 33 -5 57
-39 17 -23 31 -48 31 -56 0 -9 15 -13 50 -13 l50 0 -37 56 c-31 46 -35 58 -25
72 67 92 69 130 14 192 l-38 43 -107 5 -107 5 0 -187z m200 68 c13 -32 13 -30
-6 -48 -10 -11 -34 -16 -71 -16 -53 0 -55 1 -49 23 3 12 6 32 6 45 0 20 5 22
55 22 50 0 56 -2 65 -26z"/>
<path d="M5630 2045 l0 -185 131 0 130 0 -3 42 c-3 41 -3 42 -43 43 -136 4
-137 4 -133 27 4 27 31 36 111 37 54 1 57 2 57 25 0 33 -12 39 -89 41 -62 1
-65 2 -73 30 -4 15 -5 32 -2 37 3 4 43 8 90 8 l84 0 0 40 0 40 -130 0 -130 0
0 -185z"/>
<path d="M7123 2093 c4 -75 7 -158 7 -185 l0 -48 120 0 120 0 0 45 0 45 -79 0
c-95 0 -91 -7 -91 163 l0 117 -42 0 -41 0 6 -137z"/>
<path d="M7497 2103 c6 -145 19 -185 72 -220 54 -36 98 -40 150 -12 70 37 89
84 93 237 l4 122 -48 0 -48 0 0 -125 c0 -121 -1 -125 -24 -140 -15 -10 -40
-15 -63 -13 -53 4 -63 28 -63 166 l0 112 -39 0 -39 0 5 -127z"/>
<path d="M8347 2223 c-4 -3 -7 -84 -7 -180 l0 -173 30 -1 c17 -1 34 -2 40 -3
6 -1 12 72 15 182 l6 182 -39 0 c-21 0 -42 -3 -45 -7z"/>
<path d="M9082 2049 l3 -182 38 -4 37 -4 2 78 c0 43 0 88 -1 101 -3 34 11 26
46 -26 53 -76 132 -152 159 -152 l24 0 0 185 0 185 -35 0 -35 0 -1 -57 c0 -32
-4 -77 -7 -100 l-7 -42 -60 71 c-76 89 -120 128 -146 128 -19 0 -19 -6 -17
-181z"/>
<path d="M1630 2040 l0 -180 40 0 39 0 3 63 3 62 69 3 c82 4 86 0 86 -80 l0
-58 35 0 35 0 0 185 0 185 -35 0 -34 0 -3 -72 -3 -73 -66 1 c-97 1 -99 2 -99
79 l0 65 -35 0 -35 0 0 -180z"/>
<path d="M2592 2170 c-13 -27 -34 -77 -48 -112 -14 -35 -30 -67 -34 -73 -8
-10 -40 -112 -40 -127 0 -5 19 -8 42 -6 40 3 43 5 51 41 9 36 10 37 57 37 26
0 62 -3 79 -6 26 -6 31 -11 31 -35 0 -32 -2 -31 58 -33 42 -2 43 -1 37 23 -3
14 -23 67 -44 116 -21 50 -50 120 -66 158 -27 66 -28 67 -64 67 -33 -1 -38 -5
-59 -50z m97 -162 c1 -19 -17 -22 -56 -12 -29 8 -29 23 -2 77 l22 41 18 -44
c10 -25 18 -53 18 -62z"/>
<path d="M3961 1576 c-28 -30 -80 -161 -81 -203 0 -26 4 -33 19 -33 13 0 21 9
26 30 6 29 9 30 61 30 49 0 55 -2 64 -26 14 -36 46 -29 42 10 -3 30 -91 216
-102 216 -4 0 -17 -11 -29 -24z m55 -121 c6 -24 4 -27 -10 -22 -10 4 -27 7
-38 7 -17 0 -19 4 -13 27 11 45 25 57 41 35 7 -10 16 -31 20 -47z"/>
<path d="M3665 1583 c-32 -8 -45 -23 -45 -55 0 -23 8 -34 45 -56 47 -29 58
-43 49 -67 -5 -11 -16 -13 -45 -9 -31 5 -39 4 -39 -9 0 -20 38 -47 66 -47 25
0 74 52 74 79 0 27 -30 62 -67 77 -46 20 -37 39 17 39 24 0 45 5 47 12 7 21
-62 45 -102 36z"/>
<path d="M4274 1580 c-37 -15 -74 -68 -74 -108 0 -76 69 -140 136 -128 40 8
74 48 74 88 0 24 -6 32 -36 44 -40 17 -66 6 -39 -16 23 -19 20 -60 -6 -60 -23
0 -60 18 -71 34 -14 21 -8 63 12 81 21 19 68 24 108 10 18 -6 22 -4 22 13 0
13 -12 25 -34 36 -37 18 -60 19 -92 6z"/>
<path d="M4547 1584 c-4 -4 -7 -61 -7 -126 l0 -118 75 0 c77 0 84 4 65 41 -8
14 -21 19 -51 19 l-41 0 3 93 c3 86 2 92 -17 95 -11 2 -23 0 -27 -4z"/>
<path d="M4787 1583 c-4 -3 -7 -60 -7 -125 0 -100 3 -120 16 -125 27 -10 34
17 34 140 0 107 -2 117 -18 117 -10 0 -22 -3 -25 -7z"/>
<path d="M5486 1574 c-9 -8 -16 -21 -16 -27 0 -7 -9 -23 -19 -36 l-18 -23 -38
46 c-40 49 -75 61 -75 26 0 -11 19 -41 42 -66 36 -39 44 -55 48 -98 4 -43 8
-51 25 -51 17 0 21 8 25 60 4 50 11 68 43 109 20 27 37 55 37 62 0 19 -35 18
-54 -2z"/>
<path d="M6800 1527 c0 -35 3 -92 6 -126 6 -50 10 -61 25 -61 16 0 19 8 19 55
l0 55 55 0 55 0 0 -49 c0 -52 8 -65 34 -55 13 5 16 25 16 120 l0 114 -31 0
c-29 0 -30 -2 -24 -29 9 -40 -16 -63 -64 -59 -35 3 -36 5 -41 48 -4 37 -9 46
-27 48 -22 3 -23 0 -23 -61z"/>
<path d="M7450 1469 c0 -109 2 -120 18 -117 12 2 18 16 22 48 6 57 28 60 53 8
10 -21 23 -38 28 -38 5 0 20 23 35 52 30 59 44 52 44 -25 0 -34 5 -49 15 -54
9 -3 18 -3 21 -1 2 3 7 54 11 114 5 93 3 111 -10 122 -27 23 -49 9 -81 -50
-17 -32 -34 -58 -38 -58 -4 0 -19 22 -33 50 -23 46 -49 70 -74 70 -7 0 -11
-42 -11 -121z"/>
<path d="M4992 1468 c3 -105 4 -113 23 -113 17 0 21 8 25 64 l5 64 59 -67 c32
-37 63 -65 69 -63 6 2 12 49 15 115 l4 112 -26 0 c-24 0 -25 -2 -28 -70 l-3
-71 -53 71 c-34 46 -59 70 -72 70 -20 0 -21 -5 -18 -112z"/>
<path d="M7166 1519 c-3 -34 -6 -86 -6 -115 l0 -54 80 0 c44 0 80 4 80 9 0 31
-14 41 -56 41 -37 0 -44 3 -44 20 0 14 7 20 24 20 35 0 56 10 56 26 0 10 -12
14 -40 14 -36 0 -40 3 -40 25 0 26 8 29 66 26 26 -1 32 3 36 24 5 25 5 25 -72
25 l-77 0 -7 -61z"/>
<path d="M5893 1490 c-51 -21 -10 -80 54 -80 24 0 37 7 49 25 16 24 16 27 -1
45 -19 21 -64 25 -102 10z"/>
<path d="M2153 1481 c-50 -3 -94 -9 -98 -12 -12 -13 167 -19 730 -25 518 -6
572 -5 584 10 11 13 11 16 0 20 -23 7 -1117 13 -1216 7z"/>
<path d="M6275 1485 c-5 -2 -27 -6 -47 -10 -40 -6 -49 -19 -21 -29 29 -12 106
-18 139 -11 34 6 53 33 32 47 -13 7 -83 10 -103 3z"/>
<path d="M7981 1471 c-8 -5 -11 -16 -8 -25 6 -14 36 -15 279 -11 809 15 838
16 838 36 0 12 -1091 11 -1109 0z"/>
<path d="M6535 1389 c-11 -17 16 -69 36 -69 20 0 35 39 25 65 -6 17 -52 20
-61 4z"/>
</g>
</svg>
